<mxfile host="app.diagrams.net" modified="2023-11-10T21:29:55.399Z" agent="Mozilla/5.0 (X11; Linux x86_64) AppleWebKit/537.36 (KHTML, like Gecko) Chrome/118.0.0.0 Safari/537.36" etag="fUwhHVbMjLODS-nNPUK_" version="22.1.0" type="device">
  <diagram name="Page-1" id="I900BHUoros0kXNmdH89">
    <mxGraphModel dx="1709" dy="948" grid="1" gridSize="10" guides="1" tooltips="1" connect="1" arrows="1" fold="1" page="1" pageScale="1" pageWidth="827" pageHeight="1169" math="0" shadow="0">
      <root>
        <mxCell id="0" />
        <mxCell id="1" parent="0" />
        <mxCell id="Hu-816QFcEkYoxVbwFQW-1" value="" style="rounded=0;whiteSpace=wrap;html=1;fillColor=#fa6800;strokeColor=#C73500;fontColor=#000000;" vertex="1" parent="1">
          <mxGeometry x="360" y="440" width="40" height="40" as="geometry" />
        </mxCell>
        <mxCell id="Hu-816QFcEkYoxVbwFQW-2" value="&lt;font style=&quot;font-size: 18px;&quot;&gt;&lt;b&gt;0x400010&lt;/b&gt;&lt;/font&gt;" style="text;html=1;align=center;verticalAlign=middle;resizable=0;points=[];autosize=1;strokeColor=none;fillColor=none;" vertex="1" parent="1">
          <mxGeometry x="100" y="565" width="100" height="40" as="geometry" />
        </mxCell>
        <mxCell id="Hu-816QFcEkYoxVbwFQW-3" value="" style="rounded=0;whiteSpace=wrap;html=1;fillColor=#f5f5f5;fontColor=#333333;strokeColor=#666666;" vertex="1" parent="1">
          <mxGeometry x="400" y="440" width="40" height="40" as="geometry" />
        </mxCell>
        <mxCell id="Hu-816QFcEkYoxVbwFQW-4" value="" style="rounded=0;whiteSpace=wrap;html=1;fillColor=#f5f5f5;fontColor=#333333;strokeColor=#666666;" vertex="1" parent="1">
          <mxGeometry x="440" y="440" width="40" height="40" as="geometry" />
        </mxCell>
        <mxCell id="Hu-816QFcEkYoxVbwFQW-5" value="" style="rounded=0;whiteSpace=wrap;html=1;fillColor=#f5f5f5;fontColor=#333333;strokeColor=#666666;" vertex="1" parent="1">
          <mxGeometry x="480" y="440" width="40" height="40" as="geometry" />
        </mxCell>
        <mxCell id="Hu-816QFcEkYoxVbwFQW-6" value="" style="rounded=0;whiteSpace=wrap;html=1;fillColor=#f5f5f5;fontColor=#333333;strokeColor=#666666;" vertex="1" parent="1">
          <mxGeometry x="520" y="440" width="40" height="40" as="geometry" />
        </mxCell>
        <mxCell id="Hu-816QFcEkYoxVbwFQW-7" value="" style="rounded=0;whiteSpace=wrap;html=1;fillColor=#f5f5f5;fontColor=#333333;strokeColor=#666666;" vertex="1" parent="1">
          <mxGeometry x="560" y="440" width="40" height="40" as="geometry" />
        </mxCell>
        <mxCell id="Hu-816QFcEkYoxVbwFQW-8" value="" style="rounded=0;whiteSpace=wrap;html=1;fillColor=#f5f5f5;fontColor=#333333;strokeColor=#666666;" vertex="1" parent="1">
          <mxGeometry x="600" y="440" width="40" height="40" as="geometry" />
        </mxCell>
        <mxCell id="Hu-816QFcEkYoxVbwFQW-9" value="" style="rounded=0;whiteSpace=wrap;html=1;fillColor=#f5f5f5;fontColor=#333333;strokeColor=#666666;" vertex="1" parent="1">
          <mxGeometry x="640" y="440" width="40" height="40" as="geometry" />
        </mxCell>
        <mxCell id="Hu-816QFcEkYoxVbwFQW-10" value="" style="rounded=0;whiteSpace=wrap;html=1;fillColor=#fa6800;strokeColor=#C73500;fontColor=#000000;" vertex="1" parent="1">
          <mxGeometry x="360" y="520" width="40" height="40" as="geometry" />
        </mxCell>
        <mxCell id="Hu-816QFcEkYoxVbwFQW-11" value="" style="rounded=0;whiteSpace=wrap;html=1;fillColor=#fa6800;strokeColor=#C73500;fontColor=#000000;" vertex="1" parent="1">
          <mxGeometry x="400" y="520" width="40" height="40" as="geometry" />
        </mxCell>
        <mxCell id="Hu-816QFcEkYoxVbwFQW-12" value="" style="rounded=0;whiteSpace=wrap;html=1;fillColor=#f5f5f5;fontColor=#333333;strokeColor=#666666;" vertex="1" parent="1">
          <mxGeometry x="440" y="520" width="40" height="40" as="geometry" />
        </mxCell>
        <mxCell id="Hu-816QFcEkYoxVbwFQW-13" value="" style="rounded=0;whiteSpace=wrap;html=1;fillColor=#f5f5f5;fontColor=#333333;strokeColor=#666666;" vertex="1" parent="1">
          <mxGeometry x="480" y="520" width="40" height="40" as="geometry" />
        </mxCell>
        <mxCell id="Hu-816QFcEkYoxVbwFQW-14" value="" style="rounded=0;whiteSpace=wrap;html=1;fillColor=#f5f5f5;fontColor=#333333;strokeColor=#666666;" vertex="1" parent="1">
          <mxGeometry x="520" y="520" width="40" height="40" as="geometry" />
        </mxCell>
        <mxCell id="Hu-816QFcEkYoxVbwFQW-15" value="" style="rounded=0;whiteSpace=wrap;html=1;fillColor=#f5f5f5;fontColor=#333333;strokeColor=#666666;" vertex="1" parent="1">
          <mxGeometry x="560" y="520" width="40" height="40" as="geometry" />
        </mxCell>
        <mxCell id="Hu-816QFcEkYoxVbwFQW-16" value="" style="rounded=0;whiteSpace=wrap;html=1;fillColor=#f5f5f5;fontColor=#333333;strokeColor=#666666;" vertex="1" parent="1">
          <mxGeometry x="600" y="520" width="40" height="40" as="geometry" />
        </mxCell>
        <mxCell id="Hu-816QFcEkYoxVbwFQW-17" value="" style="rounded=0;whiteSpace=wrap;html=1;fillColor=#f5f5f5;fontColor=#333333;strokeColor=#666666;" vertex="1" parent="1">
          <mxGeometry x="640" y="520" width="40" height="40" as="geometry" />
        </mxCell>
        <mxCell id="Hu-816QFcEkYoxVbwFQW-18" value="" style="rounded=0;whiteSpace=wrap;html=1;fillColor=#fa6800;fontColor=#000000;strokeColor=#C73500;" vertex="1" parent="1">
          <mxGeometry x="360" y="600" width="40" height="40" as="geometry" />
        </mxCell>
        <mxCell id="Hu-816QFcEkYoxVbwFQW-19" value="" style="rounded=0;whiteSpace=wrap;html=1;fillColor=#fa6800;fontColor=#000000;strokeColor=#C73500;" vertex="1" parent="1">
          <mxGeometry x="400" y="600" width="40" height="40" as="geometry" />
        </mxCell>
        <mxCell id="Hu-816QFcEkYoxVbwFQW-20" value="" style="rounded=0;whiteSpace=wrap;html=1;fillColor=#fa6800;fontColor=#000000;strokeColor=#C73500;" vertex="1" parent="1">
          <mxGeometry x="440" y="600" width="40" height="40" as="geometry" />
        </mxCell>
        <mxCell id="Hu-816QFcEkYoxVbwFQW-21" value="" style="rounded=0;whiteSpace=wrap;html=1;fillColor=#fa6800;fontColor=#000000;strokeColor=#C73500;" vertex="1" parent="1">
          <mxGeometry x="480" y="600" width="40" height="40" as="geometry" />
        </mxCell>
        <mxCell id="Hu-816QFcEkYoxVbwFQW-22" value="" style="rounded=0;whiteSpace=wrap;html=1;fillColor=#f5f5f5;fontColor=#333333;strokeColor=#666666;" vertex="1" parent="1">
          <mxGeometry x="520" y="600" width="40" height="40" as="geometry" />
        </mxCell>
        <mxCell id="Hu-816QFcEkYoxVbwFQW-23" value="" style="rounded=0;whiteSpace=wrap;html=1;fillColor=#f5f5f5;fontColor=#333333;strokeColor=#666666;" vertex="1" parent="1">
          <mxGeometry x="560" y="600" width="40" height="40" as="geometry" />
        </mxCell>
        <mxCell id="Hu-816QFcEkYoxVbwFQW-24" value="" style="rounded=0;whiteSpace=wrap;html=1;fillColor=#f5f5f5;fontColor=#333333;strokeColor=#666666;" vertex="1" parent="1">
          <mxGeometry x="600" y="600" width="40" height="40" as="geometry" />
        </mxCell>
        <mxCell id="Hu-816QFcEkYoxVbwFQW-25" value="" style="rounded=0;whiteSpace=wrap;html=1;fillColor=#f5f5f5;fontColor=#333333;strokeColor=#666666;" vertex="1" parent="1">
          <mxGeometry x="640" y="600" width="40" height="40" as="geometry" />
        </mxCell>
        <mxCell id="Hu-816QFcEkYoxVbwFQW-26" value="" style="rounded=0;whiteSpace=wrap;html=1;fillColor=#fa6800;fontColor=#000000;strokeColor=#C73500;" vertex="1" parent="1">
          <mxGeometry x="360" y="680" width="40" height="40" as="geometry" />
        </mxCell>
        <mxCell id="Hu-816QFcEkYoxVbwFQW-27" value="" style="rounded=0;whiteSpace=wrap;html=1;fillColor=#fa6800;fontColor=#000000;strokeColor=#C73500;" vertex="1" parent="1">
          <mxGeometry x="400" y="680" width="40" height="40" as="geometry" />
        </mxCell>
        <mxCell id="Hu-816QFcEkYoxVbwFQW-28" value="" style="rounded=0;whiteSpace=wrap;html=1;fillColor=#fa6800;fontColor=#000000;strokeColor=#C73500;" vertex="1" parent="1">
          <mxGeometry x="440" y="680" width="40" height="40" as="geometry" />
        </mxCell>
        <mxCell id="Hu-816QFcEkYoxVbwFQW-29" value="" style="rounded=0;whiteSpace=wrap;html=1;fillColor=#fa6800;fontColor=#000000;strokeColor=#C73500;" vertex="1" parent="1">
          <mxGeometry x="480" y="680" width="40" height="40" as="geometry" />
        </mxCell>
        <mxCell id="Hu-816QFcEkYoxVbwFQW-30" value="" style="rounded=0;whiteSpace=wrap;html=1;fillColor=#fa6800;fontColor=#000000;strokeColor=#C73500;" vertex="1" parent="1">
          <mxGeometry x="520" y="680" width="40" height="40" as="geometry" />
        </mxCell>
        <mxCell id="Hu-816QFcEkYoxVbwFQW-31" value="" style="rounded=0;whiteSpace=wrap;html=1;fillColor=#fa6800;fontColor=#000000;strokeColor=#C73500;" vertex="1" parent="1">
          <mxGeometry x="560" y="680" width="40" height="40" as="geometry" />
        </mxCell>
        <mxCell id="Hu-816QFcEkYoxVbwFQW-32" value="" style="rounded=0;whiteSpace=wrap;html=1;fillColor=#fa6800;fontColor=#000000;strokeColor=#C73500;" vertex="1" parent="1">
          <mxGeometry x="600" y="680" width="40" height="40" as="geometry" />
        </mxCell>
        <mxCell id="Hu-816QFcEkYoxVbwFQW-33" value="" style="rounded=0;whiteSpace=wrap;html=1;fillColor=#fa6800;fontColor=#000000;strokeColor=#C73500;" vertex="1" parent="1">
          <mxGeometry x="640" y="680" width="40" height="40" as="geometry" />
        </mxCell>
        <mxCell id="Hu-816QFcEkYoxVbwFQW-34" value="" style="endArrow=classic;html=1;rounded=0;entryX=0;entryY=0.5;entryDx=0;entryDy=0;" edge="1" parent="1" target="Hu-816QFcEkYoxVbwFQW-1">
          <mxGeometry width="50" height="50" relative="1" as="geometry">
            <mxPoint x="200" y="580" as="sourcePoint" />
            <mxPoint x="350" y="460" as="targetPoint" />
            <Array as="points">
              <mxPoint x="200" y="460" />
            </Array>
          </mxGeometry>
        </mxCell>
        <mxCell id="Hu-816QFcEkYoxVbwFQW-38" value="&lt;b&gt;byte&lt;/b&gt; ptr" style="edgeLabel;html=1;align=center;verticalAlign=middle;resizable=0;points=[];fontSize=16;fontFamily=Courier New;fontColor=#000099;" vertex="1" connectable="0" parent="Hu-816QFcEkYoxVbwFQW-34">
          <mxGeometry x="0.302" y="-2" relative="1" as="geometry">
            <mxPoint x="10" y="-2" as="offset" />
          </mxGeometry>
        </mxCell>
        <mxCell id="Hu-816QFcEkYoxVbwFQW-35" value="" style="endArrow=classic;html=1;rounded=0;entryX=0;entryY=0.5;entryDx=0;entryDy=0;" edge="1" parent="1" target="Hu-816QFcEkYoxVbwFQW-26">
          <mxGeometry width="50" height="50" relative="1" as="geometry">
            <mxPoint x="200" y="590" as="sourcePoint" />
            <mxPoint x="360" y="470" as="targetPoint" />
            <Array as="points">
              <mxPoint x="200" y="700" />
            </Array>
          </mxGeometry>
        </mxCell>
        <mxCell id="Hu-816QFcEkYoxVbwFQW-36" value="" style="endArrow=classic;html=1;rounded=0;entryX=0;entryY=0.5;entryDx=0;entryDy=0;" edge="1" parent="1" target="Hu-816QFcEkYoxVbwFQW-18">
          <mxGeometry width="50" height="50" relative="1" as="geometry">
            <mxPoint x="200" y="620" as="sourcePoint" />
            <mxPoint x="260" y="460" as="targetPoint" />
          </mxGeometry>
        </mxCell>
        <mxCell id="Hu-816QFcEkYoxVbwFQW-37" value="" style="endArrow=classic;html=1;rounded=0;entryX=0;entryY=0.5;entryDx=0;entryDy=0;" edge="1" parent="1" target="Hu-816QFcEkYoxVbwFQW-10">
          <mxGeometry width="50" height="50" relative="1" as="geometry">
            <mxPoint x="200" y="540" as="sourcePoint" />
            <mxPoint x="260" y="460" as="targetPoint" />
          </mxGeometry>
        </mxCell>
        <mxCell id="Hu-816QFcEkYoxVbwFQW-39" value="&lt;b&gt;word&lt;/b&gt; ptr" style="edgeLabel;html=1;align=center;verticalAlign=middle;resizable=0;points=[];fontSize=16;fontFamily=Courier New;fontColor=#000099;" vertex="1" connectable="0" parent="1">
          <mxGeometry x="260" y="540" as="geometry">
            <mxPoint x="16" y="-1" as="offset" />
          </mxGeometry>
        </mxCell>
        <mxCell id="Hu-816QFcEkYoxVbwFQW-40" value="&lt;b&gt;dword&lt;/b&gt; ptr" style="edgeLabel;html=1;align=center;verticalAlign=middle;resizable=0;points=[];fontSize=16;fontFamily=Courier New;fontColor=#000099;" vertex="1" connectable="0" parent="1">
          <mxGeometry x="272" y="610" as="geometry">
            <mxPoint x="4" y="12" as="offset" />
          </mxGeometry>
        </mxCell>
        <mxCell id="Hu-816QFcEkYoxVbwFQW-41" value="&lt;b&gt;qword&lt;/b&gt; ptr" style="edgeLabel;html=1;align=center;verticalAlign=middle;resizable=0;points=[];fontSize=16;fontFamily=Courier New;fontColor=#000099;" vertex="1" connectable="0" parent="1">
          <mxGeometry x="260" y="700" as="geometry">
            <mxPoint x="19" y="-2" as="offset" />
          </mxGeometry>
        </mxCell>
      </root>
    </mxGraphModel>
  </diagram>
</mxfile>
